#!OML:ASF H:\Dans Jumps\Project 1\Capture day 1\Session 1\subject.ASF
:FULLY-SPECIFIED
:DEGREES
465
root 0.201338 17.7744 4.40037 10.6075 1.14609 -1.2883
lowerback -4.38835 0.429675 0.518629
upperback 1.32372 0.50451 1.0442
thorax 3.82075 0.250263 0.823929
lowerneck -11.279 -1.02359 -2.4941
upperneck 32.6377 -1.65694 2.46386
head 12.7581 -0.712691 1.15856
rclavicle 1.3418e-015 -1.39149e-015
rhumerus -27.1118 -12.7998 -80.3432
rradius 27.0855
rwrist 30.0872
rhand -26.4236 -30.4447
rfingers 7.12502
rthumb 0.136589 -60.4244
lclavicle 1.3418e-015 -1.39149e-015
lhumerus -31.9683 -4.76991 88.2602
lradius 33.7292
lwrist 17.3426
lhand -27.2641 -7.57868
lfingers 7.12502
lthumb -0.675158 22.4
rfemur -12.9948 -4.08621 20.3477
rtibia 18.8467
rfoot -14.0557 1.13729
rtoes 20.3044
lfemur -12.0241 6.5753 -17.2203
ltibia 16.4151
lfoot -10.0618 6.49939
ltoes 0.504981
466
root 0.202096 17.7735 4.39946 10.5822 1.16847 -1.28438
lowerback -4.43847 0.413156 0.527238
upperback 1.29163 0.481734 1.04416
thorax 3.81616 0.239161 0.817556
lowerneck -11.3275 -1.02655 -2.5239
upperneck 32.6286 -1.66664 2.50529
head 12.7657 -0.715168 1.17823
rclavicle -4.47266e-016 -7.95139e-016
rhumerus -27.1006 -12.6376 -80.3858
rradius 27.1384
rwrist 29.935
rhand -26.4182 -30.4228
rfingers 7.12502
rthumb 0.141847 -60.4025
lclavicle -4.47266e-016 -7.95139e-016
lhumerus -31.7404 -4.99819 88.392
lradius 34.1335
lwrist 17.6647
lhand -27.4003 -7.72661
lfingers 7.12502
lthumb -0.806723 22.2516
rfemur -12.9823 -4.0787 20.3428
rtibia 18.8816
rfoot -14.0817 1.09655
rtoes 20.2765
lfemur -12.0029 6.55287 -17.2261
ltibia 16.4165
lfoot -10.0522 6.52642
ltoes 0.416551
467
root 0.203483 17.7721 4.39808 10.5318 1.18875 -1.30861
lowerback -4.46011 0.399237 0.572818
upperback 1.26479 0.460265 1.05099
thorax 3.80114 0.229492 0.797386
lowerneck -11.3665 -1.0283 -2.55166
upperneck 32.6109 -1.67062 2.53321
head 12.7672 -0.716652 1.19304
rclavicle -1.15792e-014 -1.15295e-014
rhumerus -27.1073 -12.416 -80.4423
rradius 27.2219
rwrist 29.755
rhand -26.4085 -30.3888
rfingers 7.12502
rthumb 0.151237 -60.3684
lclavicle -1.15792e-014 -1.15295e-014
lhumerus -31.5276 -5.25396 88.5272
lradius 34.5265
lwrist 17.9532
lhand -27.5234 -7.88228
lfingers 7.12502
lthumb -0.925644 22.0955
rfemur -12.9316 -4.07483 20.3641
rtibia 18.8915
rfoot -14.0983 1.07241
rtoes 20.2626
lfemur -11.96 6.52019 -17.2011
ltibia 16.4306
lfoot -10.0415 6.57928
ltoes 0.302527
468
root 0.205422 17.7704 4.39647 10.4591 1.20548 -1.3464
lowerback -4.46 0.388604 0.63934
upperback 1.2437 0.442056 1.06041
thorax 3.77987 0.221883 0.768224
lowerneck -11.3985 -1.03062 -2.57454
upperneck 32.5887 -1.67223 2.54765
head 12.7652 -0.718237 1.20208
rclavicle 2.88238e-015 1.39149e-015
rhumerus -27.1255 -12.1728 -80.5026
rradius 27.3215
rwrist 29.584
rhand -26.3877 -30.3428
rfingers 7.12502
rthumb 0.171283 -60.3224
lclavicle 2.88238e-015 1.39149e-015
lhumerus -31.3218 -5.52593 88.6613
lradius 34.8977
lwrist 18.1863
lhand -27.6079 -8.02573
lfingers 7.12502
lthumb -1.00723 21.9516
rfemur -12.8473 -4.07888 20.3961
rtibia 18.881
rfoot -14.1057 1.06541
rtoes 20.2552
lfemur -11.8954 6.4861 -17.1622
ltibia 16.4527
lfoot -10.0416 6.64727
ltoes 0.211889
